<svg width="24" height="24" viewBox="0 0 24 24" fill="none" xmlns="http://www.w3.org/2000/svg">
<path d="M5.5927 2.5824C4.093 1.74924 2.25 2.83367 2.25 4.54926V19.4507C2.25 21.1663 4.093 22.2507 5.5927 21.4176L19.004 13.9668C20.5471 13.1096 20.5471 10.8904 19.004 10.0331L5.5927 2.5824Z" fill="#71D0FF"/>
<path fill-rule="evenodd" clip-rule="evenodd" d="M16.7692 8.79153L5.59274 2.5824C4.41512 1.92817 3.02582 2.45632 2.4834 3.544L2.96971 4.03031L2.98111 4.04148L11.8507 12.5415C12.1408 12.8195 12.5984 12.8195 12.8885 12.5415L16.019 9.54148L16.0304 9.53031L16.7692 8.79153Z" fill="#A2D471"/>
<path fill-rule="evenodd" clip-rule="evenodd" d="M16.7692 15.2085L16.0304 14.4697L16.019 14.4585L12.8885 11.4585C12.5984 11.1805 12.1408 11.1805 11.8507 11.4585L2.98111 19.9585L2.96971 19.9697L2.4834 20.456C3.02582 21.5437 4.41512 22.0718 5.59274 21.4176L16.7692 15.2085Z" fill="#F17171"/>
<path fill-rule="evenodd" clip-rule="evenodd" d="M15.4051 8.03375L14.9749 8.464L11.8502 11.4585C11.7026 11.5999 11.6191 11.7955 11.6191 12C11.6191 12.2044 11.7026 12.4 11.8502 12.5415L14.9749 15.536L15.4051 15.9662L19.004 13.9668C20.5471 13.1096 20.5471 10.8904 19.004 10.0331L15.4051 8.03375Z" fill="#FFC44D"/>
<path fill-rule="evenodd" clip-rule="evenodd" d="M20.1613 12H2.25V19.4507C2.25 21.1663 4.093 22.2507 5.5927 21.4176L19.004 13.9668C19.7755 13.5382 20.1613 12.7691 20.1613 12Z" fill="#45B0E5"/>
<path fill-rule="evenodd" clip-rule="evenodd" d="M3.79987 21.59C4.36219 21.7762 5.0039 21.7447 5.5927 21.4176L16.7691 15.2084L16.0304 14.4697L16.019 14.4585L13.4536 12H11.2856L2.98111 19.9585L2.96971 19.9697L2.4834 20.456C2.68559 20.8614 3.00544 21.1891 3.38814 21.4068C3.51879 21.4811 3.65676 21.5426 3.79987 21.59Z" fill="#D64545"/>
<path fill-rule="evenodd" clip-rule="evenodd" d="M20.1613 12H11.6191C11.6191 12.2044 11.7026 12.4 11.8502 12.5415L14.9749 15.536L15.4051 15.9662L19.004 13.9668C19.229 13.8418 19.4212 13.6879 19.5806 13.5134C19.9336 13.127 20.1256 12.64 20.1568 12.1441C20.1598 12.0961 20.1613 12.0481 20.1613 12Z" fill="#E5B045"/>
</svg>
